<mxfile host="app.diagrams.net" modified="2021-09-11T01:02:22.071Z" agent="5.0 (Windows NT 10.0; Win64; x64) AppleWebKit/537.36 (KHTML, like Gecko) Chrome/93.0.4577.63 Safari/537.36" etag="qGiStrlT3LTa40flWNUj" version="15.0.5" type="github">
  <diagram id="gLs-fj22sUcMV2n4nDLo" name="Page-1">
    <mxGraphModel dx="3693" dy="2582" grid="1" gridSize="10" guides="1" tooltips="1" connect="1" arrows="1" fold="1" page="1" pageScale="1" pageWidth="827" pageHeight="1169" math="0" shadow="0">
      <root>
        <mxCell id="0" />
        <mxCell id="1" parent="0" />
        <mxCell id="qe6uHjUXgluFaMte2tlm-1" value="" style="rounded=0;whiteSpace=wrap;html=1;" vertex="1" parent="1">
          <mxGeometry x="100" y="110" width="250" height="160" as="geometry" />
        </mxCell>
        <mxCell id="qe6uHjUXgluFaMte2tlm-2" value="" style="endArrow=none;html=1;entryX=1;entryY=0.25;entryDx=0;entryDy=0;exitX=0;exitY=0.25;exitDx=0;exitDy=0;" edge="1" parent="1" source="qe6uHjUXgluFaMte2tlm-1" target="qe6uHjUXgluFaMte2tlm-1">
          <mxGeometry width="50" height="50" relative="1" as="geometry">
            <mxPoint x="100" y="130" as="sourcePoint" />
            <mxPoint x="150" y="80" as="targetPoint" />
          </mxGeometry>
        </mxCell>
        <mxCell id="qe6uHjUXgluFaMte2tlm-5" value="" style="endArrow=none;html=1;entryX=1;entryY=0.25;entryDx=0;entryDy=0;exitX=0;exitY=0.25;exitDx=0;exitDy=0;" edge="1" parent="1">
          <mxGeometry width="50" height="50" relative="1" as="geometry">
            <mxPoint x="100" y="230" as="sourcePoint" />
            <mxPoint x="350" y="230" as="targetPoint" />
          </mxGeometry>
        </mxCell>
        <mxCell id="qe6uHjUXgluFaMte2tlm-6" value="" style="endArrow=none;html=1;" edge="1" parent="1">
          <mxGeometry width="50" height="50" relative="1" as="geometry">
            <mxPoint x="163" y="230" as="sourcePoint" />
            <mxPoint x="163" y="150" as="targetPoint" />
          </mxGeometry>
        </mxCell>
        <mxCell id="qe6uHjUXgluFaMte2tlm-7" value="" style="endArrow=none;html=1;" edge="1" parent="1">
          <mxGeometry width="50" height="50" relative="1" as="geometry">
            <mxPoint x="291" y="230" as="sourcePoint" />
            <mxPoint x="291" y="150" as="targetPoint" />
          </mxGeometry>
        </mxCell>
        <mxCell id="qe6uHjUXgluFaMte2tlm-8" value="" style="endArrow=none;html=1;" edge="1" parent="1">
          <mxGeometry width="50" height="50" relative="1" as="geometry">
            <mxPoint x="100" y="190" as="sourcePoint" />
            <mxPoint x="160" y="190" as="targetPoint" />
          </mxGeometry>
        </mxCell>
        <mxCell id="qe6uHjUXgluFaMte2tlm-10" value="" style="endArrow=none;html=1;" edge="1" parent="1">
          <mxGeometry width="50" height="50" relative="1" as="geometry">
            <mxPoint x="290" y="189.5" as="sourcePoint" />
            <mxPoint x="350" y="189.5" as="targetPoint" />
          </mxGeometry>
        </mxCell>
        <mxCell id="qe6uHjUXgluFaMte2tlm-18" value="A" style="text;html=1;strokeColor=none;fillColor=none;align=center;verticalAlign=middle;whiteSpace=wrap;rounded=0;" vertex="1" parent="1">
          <mxGeometry x="110" y="120" width="40" height="20" as="geometry" />
        </mxCell>
        <mxCell id="qe6uHjUXgluFaMte2tlm-19" value="" style="endArrow=none;html=1;" edge="1" parent="1">
          <mxGeometry width="50" height="50" relative="1" as="geometry">
            <mxPoint x="224.5" y="270" as="sourcePoint" />
            <mxPoint x="225" y="230" as="targetPoint" />
          </mxGeometry>
        </mxCell>
        <mxCell id="qe6uHjUXgluFaMte2tlm-20" value="" style="endArrow=none;html=1;" edge="1" parent="1">
          <mxGeometry width="50" height="50" relative="1" as="geometry">
            <mxPoint x="224.5" y="150" as="sourcePoint" />
            <mxPoint x="225" y="110" as="targetPoint" />
          </mxGeometry>
        </mxCell>
        <mxCell id="qe6uHjUXgluFaMte2tlm-21" value="6" style="text;html=1;strokeColor=none;fillColor=none;align=center;verticalAlign=middle;whiteSpace=wrap;rounded=0;" vertex="1" parent="1">
          <mxGeometry x="270" y="120" width="40" height="20" as="geometry" />
        </mxCell>
        <mxCell id="qe6uHjUXgluFaMte2tlm-22" value="0" style="text;html=1;strokeColor=none;fillColor=none;align=center;verticalAlign=middle;whiteSpace=wrap;rounded=0;" vertex="1" parent="1">
          <mxGeometry x="110" y="160" width="40" height="20" as="geometry" />
        </mxCell>
        <mxCell id="qe6uHjUXgluFaMte2tlm-23" value="0" style="text;html=1;strokeColor=none;fillColor=none;align=center;verticalAlign=middle;whiteSpace=wrap;rounded=0;" vertex="1" parent="1">
          <mxGeometry x="110" y="200" width="40" height="20" as="geometry" />
        </mxCell>
        <mxCell id="qe6uHjUXgluFaMte2tlm-24" value="8" style="text;html=1;strokeColor=none;fillColor=none;align=center;verticalAlign=middle;whiteSpace=wrap;rounded=0;" vertex="1" parent="1">
          <mxGeometry x="140" y="240" width="40" height="20" as="geometry" />
        </mxCell>
        <mxCell id="qe6uHjUXgluFaMte2tlm-25" value="2" style="text;html=1;strokeColor=none;fillColor=none;align=center;verticalAlign=middle;whiteSpace=wrap;rounded=0;" vertex="1" parent="1">
          <mxGeometry x="270" y="240" width="40" height="20" as="geometry" />
        </mxCell>
        <mxCell id="qe6uHjUXgluFaMte2tlm-26" value="8" style="text;html=1;strokeColor=none;fillColor=none;align=center;verticalAlign=middle;whiteSpace=wrap;rounded=0;" vertex="1" parent="1">
          <mxGeometry x="300" y="200" width="40" height="20" as="geometry" />
        </mxCell>
        <mxCell id="qe6uHjUXgluFaMte2tlm-27" value="6" style="text;html=1;strokeColor=none;fillColor=none;align=center;verticalAlign=middle;whiteSpace=wrap;rounded=0;" vertex="1" parent="1">
          <mxGeometry x="300" y="160" width="40" height="20" as="geometry" />
        </mxCell>
        <mxCell id="qe6uHjUXgluFaMte2tlm-28" value="" style="rounded=0;whiteSpace=wrap;html=1;" vertex="1" parent="1">
          <mxGeometry x="100" y="300" width="250" height="160" as="geometry" />
        </mxCell>
        <mxCell id="qe6uHjUXgluFaMte2tlm-29" value="" style="endArrow=none;html=1;entryX=1;entryY=0.25;entryDx=0;entryDy=0;exitX=0;exitY=0.25;exitDx=0;exitDy=0;" edge="1" parent="1" source="qe6uHjUXgluFaMte2tlm-28" target="qe6uHjUXgluFaMte2tlm-28">
          <mxGeometry width="50" height="50" relative="1" as="geometry">
            <mxPoint x="100" y="320" as="sourcePoint" />
            <mxPoint x="150" y="270" as="targetPoint" />
          </mxGeometry>
        </mxCell>
        <mxCell id="qe6uHjUXgluFaMte2tlm-30" value="" style="endArrow=none;html=1;entryX=1;entryY=0.25;entryDx=0;entryDy=0;exitX=0;exitY=0.25;exitDx=0;exitDy=0;" edge="1" parent="1">
          <mxGeometry width="50" height="50" relative="1" as="geometry">
            <mxPoint x="100" y="420" as="sourcePoint" />
            <mxPoint x="350" y="420" as="targetPoint" />
          </mxGeometry>
        </mxCell>
        <mxCell id="qe6uHjUXgluFaMte2tlm-31" value="" style="endArrow=none;html=1;" edge="1" parent="1">
          <mxGeometry width="50" height="50" relative="1" as="geometry">
            <mxPoint x="163" y="420" as="sourcePoint" />
            <mxPoint x="163" y="340" as="targetPoint" />
          </mxGeometry>
        </mxCell>
        <mxCell id="qe6uHjUXgluFaMte2tlm-32" value="" style="endArrow=none;html=1;" edge="1" parent="1">
          <mxGeometry width="50" height="50" relative="1" as="geometry">
            <mxPoint x="291" y="420" as="sourcePoint" />
            <mxPoint x="291" y="340" as="targetPoint" />
          </mxGeometry>
        </mxCell>
        <mxCell id="qe6uHjUXgluFaMte2tlm-33" value="" style="endArrow=none;html=1;" edge="1" parent="1">
          <mxGeometry width="50" height="50" relative="1" as="geometry">
            <mxPoint x="100" y="380" as="sourcePoint" />
            <mxPoint x="160" y="380" as="targetPoint" />
          </mxGeometry>
        </mxCell>
        <mxCell id="qe6uHjUXgluFaMte2tlm-34" value="" style="endArrow=none;html=1;" edge="1" parent="1">
          <mxGeometry width="50" height="50" relative="1" as="geometry">
            <mxPoint x="290" y="379.5" as="sourcePoint" />
            <mxPoint x="350" y="379.5" as="targetPoint" />
          </mxGeometry>
        </mxCell>
        <mxCell id="qe6uHjUXgluFaMte2tlm-35" value="B" style="text;html=1;strokeColor=none;fillColor=none;align=center;verticalAlign=middle;whiteSpace=wrap;rounded=0;" vertex="1" parent="1">
          <mxGeometry x="110" y="310" width="40" height="20" as="geometry" />
        </mxCell>
        <mxCell id="qe6uHjUXgluFaMte2tlm-36" value="" style="endArrow=none;html=1;" edge="1" parent="1">
          <mxGeometry width="50" height="50" relative="1" as="geometry">
            <mxPoint x="224.5" y="460" as="sourcePoint" />
            <mxPoint x="225" y="420" as="targetPoint" />
          </mxGeometry>
        </mxCell>
        <mxCell id="qe6uHjUXgluFaMte2tlm-37" value="" style="endArrow=none;html=1;" edge="1" parent="1">
          <mxGeometry width="50" height="50" relative="1" as="geometry">
            <mxPoint x="224.5" y="340" as="sourcePoint" />
            <mxPoint x="225" y="300" as="targetPoint" />
          </mxGeometry>
        </mxCell>
        <mxCell id="qe6uHjUXgluFaMte2tlm-38" value="4" style="text;html=1;strokeColor=none;fillColor=none;align=center;verticalAlign=middle;whiteSpace=wrap;rounded=0;" vertex="1" parent="1">
          <mxGeometry x="270" y="310" width="40" height="20" as="geometry" />
        </mxCell>
        <mxCell id="qe6uHjUXgluFaMte2tlm-39" value="0" style="text;html=1;strokeColor=none;fillColor=none;align=center;verticalAlign=middle;whiteSpace=wrap;rounded=0;" vertex="1" parent="1">
          <mxGeometry x="110" y="350" width="40" height="20" as="geometry" />
        </mxCell>
        <mxCell id="qe6uHjUXgluFaMte2tlm-40" value="0" style="text;html=1;strokeColor=none;fillColor=none;align=center;verticalAlign=middle;whiteSpace=wrap;rounded=0;" vertex="1" parent="1">
          <mxGeometry x="110" y="390" width="40" height="20" as="geometry" />
        </mxCell>
        <mxCell id="qe6uHjUXgluFaMte2tlm-41" value="5" style="text;html=1;strokeColor=none;fillColor=none;align=center;verticalAlign=middle;whiteSpace=wrap;rounded=0;" vertex="1" parent="1">
          <mxGeometry x="140" y="430" width="40" height="20" as="geometry" />
        </mxCell>
        <mxCell id="qe6uHjUXgluFaMte2tlm-42" value="1" style="text;html=1;strokeColor=none;fillColor=none;align=center;verticalAlign=middle;whiteSpace=wrap;rounded=0;" vertex="1" parent="1">
          <mxGeometry x="270" y="430" width="40" height="20" as="geometry" />
        </mxCell>
        <mxCell id="qe6uHjUXgluFaMte2tlm-43" value="5" style="text;html=1;strokeColor=none;fillColor=none;align=center;verticalAlign=middle;whiteSpace=wrap;rounded=0;" vertex="1" parent="1">
          <mxGeometry x="300" y="390" width="40" height="20" as="geometry" />
        </mxCell>
        <mxCell id="qe6uHjUXgluFaMte2tlm-44" value="4" style="text;html=1;strokeColor=none;fillColor=none;align=center;verticalAlign=middle;whiteSpace=wrap;rounded=0;" vertex="1" parent="1">
          <mxGeometry x="300" y="350" width="40" height="20" as="geometry" />
        </mxCell>
        <mxCell id="qe6uHjUXgluFaMte2tlm-62" value="" style="rounded=0;whiteSpace=wrap;html=1;" vertex="1" parent="1">
          <mxGeometry x="100" y="500" width="250" height="160" as="geometry" />
        </mxCell>
        <mxCell id="qe6uHjUXgluFaMte2tlm-63" value="" style="endArrow=none;html=1;entryX=1;entryY=0.25;entryDx=0;entryDy=0;exitX=0;exitY=0.25;exitDx=0;exitDy=0;" edge="1" parent="1" source="qe6uHjUXgluFaMte2tlm-62" target="qe6uHjUXgluFaMte2tlm-62">
          <mxGeometry width="50" height="50" relative="1" as="geometry">
            <mxPoint x="100" y="520" as="sourcePoint" />
            <mxPoint x="150" y="470" as="targetPoint" />
          </mxGeometry>
        </mxCell>
        <mxCell id="qe6uHjUXgluFaMte2tlm-64" value="" style="endArrow=none;html=1;entryX=1;entryY=0.25;entryDx=0;entryDy=0;exitX=0;exitY=0.25;exitDx=0;exitDy=0;" edge="1" parent="1">
          <mxGeometry width="50" height="50" relative="1" as="geometry">
            <mxPoint x="100" y="620" as="sourcePoint" />
            <mxPoint x="350" y="620" as="targetPoint" />
          </mxGeometry>
        </mxCell>
        <mxCell id="qe6uHjUXgluFaMte2tlm-65" value="" style="endArrow=none;html=1;" edge="1" parent="1">
          <mxGeometry width="50" height="50" relative="1" as="geometry">
            <mxPoint x="163" y="620" as="sourcePoint" />
            <mxPoint x="163" y="540" as="targetPoint" />
          </mxGeometry>
        </mxCell>
        <mxCell id="qe6uHjUXgluFaMte2tlm-66" value="" style="endArrow=none;html=1;" edge="1" parent="1">
          <mxGeometry width="50" height="50" relative="1" as="geometry">
            <mxPoint x="291" y="620" as="sourcePoint" />
            <mxPoint x="291" y="540" as="targetPoint" />
          </mxGeometry>
        </mxCell>
        <mxCell id="qe6uHjUXgluFaMte2tlm-67" value="" style="endArrow=none;html=1;" edge="1" parent="1">
          <mxGeometry width="50" height="50" relative="1" as="geometry">
            <mxPoint x="100" y="580" as="sourcePoint" />
            <mxPoint x="160" y="580" as="targetPoint" />
          </mxGeometry>
        </mxCell>
        <mxCell id="qe6uHjUXgluFaMte2tlm-68" value="" style="endArrow=none;html=1;" edge="1" parent="1">
          <mxGeometry width="50" height="50" relative="1" as="geometry">
            <mxPoint x="290" y="579.5" as="sourcePoint" />
            <mxPoint x="350" y="579.5" as="targetPoint" />
          </mxGeometry>
        </mxCell>
        <mxCell id="qe6uHjUXgluFaMte2tlm-69" value="C" style="text;html=1;strokeColor=none;fillColor=none;align=center;verticalAlign=middle;whiteSpace=wrap;rounded=0;" vertex="1" parent="1">
          <mxGeometry x="110" y="510" width="40" height="20" as="geometry" />
        </mxCell>
        <mxCell id="qe6uHjUXgluFaMte2tlm-70" value="" style="endArrow=none;html=1;" edge="1" parent="1">
          <mxGeometry width="50" height="50" relative="1" as="geometry">
            <mxPoint x="224.5" y="660" as="sourcePoint" />
            <mxPoint x="225" y="620" as="targetPoint" />
          </mxGeometry>
        </mxCell>
        <mxCell id="qe6uHjUXgluFaMte2tlm-71" value="" style="endArrow=none;html=1;" edge="1" parent="1">
          <mxGeometry width="50" height="50" relative="1" as="geometry">
            <mxPoint x="224.5" y="540" as="sourcePoint" />
            <mxPoint x="225" y="500" as="targetPoint" />
          </mxGeometry>
        </mxCell>
        <mxCell id="qe6uHjUXgluFaMte2tlm-72" value="4" style="text;html=1;strokeColor=none;fillColor=none;align=center;verticalAlign=middle;whiteSpace=wrap;rounded=0;" vertex="1" parent="1">
          <mxGeometry x="270" y="510" width="40" height="20" as="geometry" />
        </mxCell>
        <mxCell id="qe6uHjUXgluFaMte2tlm-73" value="0" style="text;html=1;strokeColor=none;fillColor=none;align=center;verticalAlign=middle;whiteSpace=wrap;rounded=0;" vertex="1" parent="1">
          <mxGeometry x="110" y="550" width="40" height="20" as="geometry" />
        </mxCell>
        <mxCell id="qe6uHjUXgluFaMte2tlm-74" value="0" style="text;html=1;strokeColor=none;fillColor=none;align=center;verticalAlign=middle;whiteSpace=wrap;rounded=0;" vertex="1" parent="1">
          <mxGeometry x="110" y="590" width="40" height="20" as="geometry" />
        </mxCell>
        <mxCell id="qe6uHjUXgluFaMte2tlm-75" value="6" style="text;html=1;strokeColor=none;fillColor=none;align=center;verticalAlign=middle;whiteSpace=wrap;rounded=0;" vertex="1" parent="1">
          <mxGeometry x="140" y="630" width="40" height="20" as="geometry" />
        </mxCell>
        <mxCell id="qe6uHjUXgluFaMte2tlm-76" value="2" style="text;html=1;strokeColor=none;fillColor=none;align=center;verticalAlign=middle;whiteSpace=wrap;rounded=0;" vertex="1" parent="1">
          <mxGeometry x="270" y="630" width="40" height="20" as="geometry" />
        </mxCell>
        <mxCell id="qe6uHjUXgluFaMte2tlm-77" value="6" style="text;html=1;strokeColor=none;fillColor=none;align=center;verticalAlign=middle;whiteSpace=wrap;rounded=0;" vertex="1" parent="1">
          <mxGeometry x="300" y="590" width="40" height="20" as="geometry" />
        </mxCell>
        <mxCell id="qe6uHjUXgluFaMte2tlm-78" value="4" style="text;html=1;strokeColor=none;fillColor=none;align=center;verticalAlign=middle;whiteSpace=wrap;rounded=0;" vertex="1" parent="1">
          <mxGeometry x="300" y="550" width="40" height="20" as="geometry" />
        </mxCell>
        <mxCell id="qe6uHjUXgluFaMte2tlm-79" value="" style="rounded=0;whiteSpace=wrap;html=1;" vertex="1" parent="1">
          <mxGeometry x="413" y="-60" width="250" height="160" as="geometry" />
        </mxCell>
        <mxCell id="qe6uHjUXgluFaMte2tlm-80" value="" style="endArrow=none;html=1;entryX=1;entryY=0.25;entryDx=0;entryDy=0;exitX=0;exitY=0.25;exitDx=0;exitDy=0;" edge="1" parent="1" source="qe6uHjUXgluFaMte2tlm-79" target="qe6uHjUXgluFaMte2tlm-79">
          <mxGeometry width="50" height="50" relative="1" as="geometry">
            <mxPoint x="413" y="-40" as="sourcePoint" />
            <mxPoint x="463" y="-90" as="targetPoint" />
          </mxGeometry>
        </mxCell>
        <mxCell id="qe6uHjUXgluFaMte2tlm-81" value="" style="endArrow=none;html=1;entryX=1;entryY=0.25;entryDx=0;entryDy=0;exitX=0;exitY=0.25;exitDx=0;exitDy=0;" edge="1" parent="1">
          <mxGeometry width="50" height="50" relative="1" as="geometry">
            <mxPoint x="412.9999999999998" y="60" as="sourcePoint" />
            <mxPoint x="662.9999999999998" y="60" as="targetPoint" />
          </mxGeometry>
        </mxCell>
        <mxCell id="qe6uHjUXgluFaMte2tlm-82" value="" style="endArrow=none;html=1;" edge="1" parent="1">
          <mxGeometry width="50" height="50" relative="1" as="geometry">
            <mxPoint x="476" y="60" as="sourcePoint" />
            <mxPoint x="476" y="-20" as="targetPoint" />
          </mxGeometry>
        </mxCell>
        <mxCell id="qe6uHjUXgluFaMte2tlm-83" value="" style="endArrow=none;html=1;" edge="1" parent="1">
          <mxGeometry width="50" height="50" relative="1" as="geometry">
            <mxPoint x="604" y="60" as="sourcePoint" />
            <mxPoint x="604" y="-20" as="targetPoint" />
          </mxGeometry>
        </mxCell>
        <mxCell id="qe6uHjUXgluFaMte2tlm-84" value="" style="endArrow=none;html=1;" edge="1" parent="1">
          <mxGeometry width="50" height="50" relative="1" as="geometry">
            <mxPoint x="412.9999999999998" y="20" as="sourcePoint" />
            <mxPoint x="472.9999999999998" y="20" as="targetPoint" />
          </mxGeometry>
        </mxCell>
        <mxCell id="qe6uHjUXgluFaMte2tlm-85" value="" style="endArrow=none;html=1;" edge="1" parent="1">
          <mxGeometry width="50" height="50" relative="1" as="geometry">
            <mxPoint x="602.9999999999998" y="19.5" as="sourcePoint" />
            <mxPoint x="662.9999999999998" y="19.5" as="targetPoint" />
          </mxGeometry>
        </mxCell>
        <mxCell id="qe6uHjUXgluFaMte2tlm-86" value="D" style="text;html=1;strokeColor=none;fillColor=none;align=center;verticalAlign=middle;whiteSpace=wrap;rounded=0;" vertex="1" parent="1">
          <mxGeometry x="423" y="-50" width="40" height="20" as="geometry" />
        </mxCell>
        <mxCell id="qe6uHjUXgluFaMte2tlm-87" value="" style="endArrow=none;html=1;" edge="1" parent="1">
          <mxGeometry width="50" height="50" relative="1" as="geometry">
            <mxPoint x="537.5" y="100" as="sourcePoint" />
            <mxPoint x="537.9999999999998" y="60" as="targetPoint" />
          </mxGeometry>
        </mxCell>
        <mxCell id="qe6uHjUXgluFaMte2tlm-88" value="" style="endArrow=none;html=1;" edge="1" parent="1">
          <mxGeometry width="50" height="50" relative="1" as="geometry">
            <mxPoint x="537.5" y="-20" as="sourcePoint" />
            <mxPoint x="537.9999999999998" y="-60" as="targetPoint" />
          </mxGeometry>
        </mxCell>
        <mxCell id="qe6uHjUXgluFaMte2tlm-89" value="3" style="text;html=1;strokeColor=none;fillColor=none;align=center;verticalAlign=middle;whiteSpace=wrap;rounded=0;" vertex="1" parent="1">
          <mxGeometry x="583" y="-50" width="40" height="20" as="geometry" />
        </mxCell>
        <mxCell id="qe6uHjUXgluFaMte2tlm-90" value="6" style="text;html=1;strokeColor=none;fillColor=none;align=center;verticalAlign=middle;whiteSpace=wrap;rounded=0;" vertex="1" parent="1">
          <mxGeometry x="423" y="-10" width="40" height="20" as="geometry" />
        </mxCell>
        <mxCell id="qe6uHjUXgluFaMte2tlm-91" value="8" style="text;html=1;strokeColor=none;fillColor=none;align=center;verticalAlign=middle;whiteSpace=wrap;rounded=0;" vertex="1" parent="1">
          <mxGeometry x="423" y="30" width="40" height="20" as="geometry" />
        </mxCell>
        <mxCell id="qe6uHjUXgluFaMte2tlm-92" value="4" style="text;html=1;strokeColor=none;fillColor=none;align=center;verticalAlign=middle;whiteSpace=wrap;rounded=0;" vertex="1" parent="1">
          <mxGeometry x="453" y="70" width="40" height="20" as="geometry" />
        </mxCell>
        <mxCell id="qe6uHjUXgluFaMte2tlm-93" value="1" style="text;html=1;strokeColor=none;fillColor=none;align=center;verticalAlign=middle;whiteSpace=wrap;rounded=0;" vertex="1" parent="1">
          <mxGeometry x="583" y="70" width="40" height="20" as="geometry" />
        </mxCell>
        <mxCell id="qe6uHjUXgluFaMte2tlm-94" value="4" style="text;html=1;strokeColor=none;fillColor=none;align=center;verticalAlign=middle;whiteSpace=wrap;rounded=0;" vertex="1" parent="1">
          <mxGeometry x="613" y="30" width="40" height="20" as="geometry" />
        </mxCell>
        <mxCell id="qe6uHjUXgluFaMte2tlm-95" value="3" style="text;html=1;strokeColor=none;fillColor=none;align=center;verticalAlign=middle;whiteSpace=wrap;rounded=0;" vertex="1" parent="1">
          <mxGeometry x="613" y="-10" width="40" height="20" as="geometry" />
        </mxCell>
        <mxCell id="qe6uHjUXgluFaMte2tlm-96" value="" style="rounded=0;whiteSpace=wrap;html=1;" vertex="1" parent="1">
          <mxGeometry x="440" y="180" width="250" height="160" as="geometry" />
        </mxCell>
        <mxCell id="qe6uHjUXgluFaMte2tlm-97" value="" style="endArrow=none;html=1;entryX=1;entryY=0.25;entryDx=0;entryDy=0;exitX=0;exitY=0.25;exitDx=0;exitDy=0;" edge="1" parent="1" source="qe6uHjUXgluFaMte2tlm-96" target="qe6uHjUXgluFaMte2tlm-96">
          <mxGeometry width="50" height="50" relative="1" as="geometry">
            <mxPoint x="440" y="200" as="sourcePoint" />
            <mxPoint x="490" y="150" as="targetPoint" />
          </mxGeometry>
        </mxCell>
        <mxCell id="qe6uHjUXgluFaMte2tlm-98" value="" style="endArrow=none;html=1;entryX=1;entryY=0.25;entryDx=0;entryDy=0;exitX=0;exitY=0.25;exitDx=0;exitDy=0;" edge="1" parent="1">
          <mxGeometry width="50" height="50" relative="1" as="geometry">
            <mxPoint x="439.9999999999998" y="300" as="sourcePoint" />
            <mxPoint x="689.9999999999998" y="300" as="targetPoint" />
          </mxGeometry>
        </mxCell>
        <mxCell id="qe6uHjUXgluFaMte2tlm-99" value="" style="endArrow=none;html=1;" edge="1" parent="1">
          <mxGeometry width="50" height="50" relative="1" as="geometry">
            <mxPoint x="503" y="300" as="sourcePoint" />
            <mxPoint x="503" y="220" as="targetPoint" />
          </mxGeometry>
        </mxCell>
        <mxCell id="qe6uHjUXgluFaMte2tlm-100" value="" style="endArrow=none;html=1;" edge="1" parent="1">
          <mxGeometry width="50" height="50" relative="1" as="geometry">
            <mxPoint x="631" y="300" as="sourcePoint" />
            <mxPoint x="631" y="220" as="targetPoint" />
          </mxGeometry>
        </mxCell>
        <mxCell id="qe6uHjUXgluFaMte2tlm-101" value="" style="endArrow=none;html=1;" edge="1" parent="1">
          <mxGeometry width="50" height="50" relative="1" as="geometry">
            <mxPoint x="439.9999999999998" y="260" as="sourcePoint" />
            <mxPoint x="499.9999999999998" y="260" as="targetPoint" />
          </mxGeometry>
        </mxCell>
        <mxCell id="qe6uHjUXgluFaMte2tlm-102" value="" style="endArrow=none;html=1;" edge="1" parent="1">
          <mxGeometry width="50" height="50" relative="1" as="geometry">
            <mxPoint x="629.9999999999998" y="259.5" as="sourcePoint" />
            <mxPoint x="689.9999999999998" y="259.5" as="targetPoint" />
          </mxGeometry>
        </mxCell>
        <mxCell id="qe6uHjUXgluFaMte2tlm-103" value="E" style="text;html=1;strokeColor=none;fillColor=none;align=center;verticalAlign=middle;whiteSpace=wrap;rounded=0;" vertex="1" parent="1">
          <mxGeometry x="450" y="190" width="40" height="20" as="geometry" />
        </mxCell>
        <mxCell id="qe6uHjUXgluFaMte2tlm-104" value="" style="endArrow=none;html=1;" edge="1" parent="1">
          <mxGeometry width="50" height="50" relative="1" as="geometry">
            <mxPoint x="564.5" y="340" as="sourcePoint" />
            <mxPoint x="564.9999999999998" y="300" as="targetPoint" />
          </mxGeometry>
        </mxCell>
        <mxCell id="qe6uHjUXgluFaMte2tlm-105" value="" style="endArrow=none;html=1;" edge="1" parent="1">
          <mxGeometry width="50" height="50" relative="1" as="geometry">
            <mxPoint x="564.5" y="220" as="sourcePoint" />
            <mxPoint x="564.9999999999998" y="180" as="targetPoint" />
          </mxGeometry>
        </mxCell>
        <mxCell id="qe6uHjUXgluFaMte2tlm-106" value="5" style="text;html=1;strokeColor=none;fillColor=none;align=center;verticalAlign=middle;whiteSpace=wrap;rounded=0;" vertex="1" parent="1">
          <mxGeometry x="610" y="190" width="40" height="20" as="geometry" />
        </mxCell>
        <mxCell id="qe6uHjUXgluFaMte2tlm-107" value="6" style="text;html=1;strokeColor=none;fillColor=none;align=center;verticalAlign=middle;whiteSpace=wrap;rounded=0;" vertex="1" parent="1">
          <mxGeometry x="450" y="230" width="40" height="20" as="geometry" />
        </mxCell>
        <mxCell id="qe6uHjUXgluFaMte2tlm-108" value="8" style="text;html=1;strokeColor=none;fillColor=none;align=center;verticalAlign=middle;whiteSpace=wrap;rounded=0;" vertex="1" parent="1">
          <mxGeometry x="450" y="270" width="40" height="20" as="geometry" />
        </mxCell>
        <mxCell id="qe6uHjUXgluFaMte2tlm-109" value="6" style="text;html=1;strokeColor=none;fillColor=none;align=center;verticalAlign=middle;whiteSpace=wrap;rounded=0;" vertex="1" parent="1">
          <mxGeometry x="480" y="310" width="40" height="20" as="geometry" />
        </mxCell>
        <mxCell id="qe6uHjUXgluFaMte2tlm-110" value="1" style="text;html=1;strokeColor=none;fillColor=none;align=center;verticalAlign=middle;whiteSpace=wrap;rounded=0;" vertex="1" parent="1">
          <mxGeometry x="610" y="310" width="40" height="20" as="geometry" />
        </mxCell>
        <mxCell id="qe6uHjUXgluFaMte2tlm-111" value="6" style="text;html=1;strokeColor=none;fillColor=none;align=center;verticalAlign=middle;whiteSpace=wrap;rounded=0;" vertex="1" parent="1">
          <mxGeometry x="640" y="270" width="40" height="20" as="geometry" />
        </mxCell>
        <mxCell id="qe6uHjUXgluFaMte2tlm-112" value="5" style="text;html=1;strokeColor=none;fillColor=none;align=center;verticalAlign=middle;whiteSpace=wrap;rounded=0;" vertex="1" parent="1">
          <mxGeometry x="640" y="230" width="40" height="20" as="geometry" />
        </mxCell>
        <mxCell id="qe6uHjUXgluFaMte2tlm-113" value="" style="endArrow=classic;html=1;" edge="1" parent="1">
          <mxGeometry width="50" height="50" relative="1" as="geometry">
            <mxPoint x="300" y="100" as="sourcePoint" />
            <mxPoint x="410" y="20" as="targetPoint" />
          </mxGeometry>
        </mxCell>
        <mxCell id="qe6uHjUXgluFaMte2tlm-114" value="" style="endArrow=classic;html=1;exitX=1.015;exitY=0.557;exitDx=0;exitDy=0;exitPerimeter=0;" edge="1" parent="1" source="qe6uHjUXgluFaMte2tlm-1">
          <mxGeometry width="50" height="50" relative="1" as="geometry">
            <mxPoint x="420" y="260" as="sourcePoint" />
            <mxPoint x="440" y="220" as="targetPoint" />
          </mxGeometry>
        </mxCell>
        <mxCell id="qe6uHjUXgluFaMte2tlm-115" value="" style="endArrow=classic;html=1;" edge="1" parent="1">
          <mxGeometry width="50" height="50" relative="1" as="geometry">
            <mxPoint x="350" y="350" as="sourcePoint" />
            <mxPoint x="430" y="300" as="targetPoint" />
          </mxGeometry>
        </mxCell>
        <mxCell id="qe6uHjUXgluFaMte2tlm-116" value="" style="rounded=0;whiteSpace=wrap;html=1;" vertex="1" parent="1">
          <mxGeometry x="453" y="500" width="250" height="160" as="geometry" />
        </mxCell>
        <mxCell id="qe6uHjUXgluFaMte2tlm-117" value="" style="endArrow=none;html=1;entryX=1;entryY=0.25;entryDx=0;entryDy=0;exitX=0;exitY=0.25;exitDx=0;exitDy=0;" edge="1" parent="1" source="qe6uHjUXgluFaMte2tlm-116" target="qe6uHjUXgluFaMte2tlm-116">
          <mxGeometry width="50" height="50" relative="1" as="geometry">
            <mxPoint x="453" y="520" as="sourcePoint" />
            <mxPoint x="503" y="470" as="targetPoint" />
          </mxGeometry>
        </mxCell>
        <mxCell id="qe6uHjUXgluFaMte2tlm-118" value="" style="endArrow=none;html=1;entryX=1;entryY=0.25;entryDx=0;entryDy=0;exitX=0;exitY=0.25;exitDx=0;exitDy=0;" edge="1" parent="1">
          <mxGeometry width="50" height="50" relative="1" as="geometry">
            <mxPoint x="452.9999999999998" y="620" as="sourcePoint" />
            <mxPoint x="702.9999999999998" y="620" as="targetPoint" />
          </mxGeometry>
        </mxCell>
        <mxCell id="qe6uHjUXgluFaMte2tlm-119" value="" style="endArrow=none;html=1;" edge="1" parent="1">
          <mxGeometry width="50" height="50" relative="1" as="geometry">
            <mxPoint x="516" y="620" as="sourcePoint" />
            <mxPoint x="516" y="540" as="targetPoint" />
          </mxGeometry>
        </mxCell>
        <mxCell id="qe6uHjUXgluFaMte2tlm-120" value="" style="endArrow=none;html=1;" edge="1" parent="1">
          <mxGeometry width="50" height="50" relative="1" as="geometry">
            <mxPoint x="644" y="620" as="sourcePoint" />
            <mxPoint x="644" y="540" as="targetPoint" />
          </mxGeometry>
        </mxCell>
        <mxCell id="qe6uHjUXgluFaMte2tlm-121" value="" style="endArrow=none;html=1;" edge="1" parent="1">
          <mxGeometry width="50" height="50" relative="1" as="geometry">
            <mxPoint x="452.9999999999998" y="580" as="sourcePoint" />
            <mxPoint x="512.9999999999998" y="580" as="targetPoint" />
          </mxGeometry>
        </mxCell>
        <mxCell id="qe6uHjUXgluFaMte2tlm-122" value="" style="endArrow=none;html=1;" edge="1" parent="1">
          <mxGeometry width="50" height="50" relative="1" as="geometry">
            <mxPoint x="642.9999999999998" y="579.5" as="sourcePoint" />
            <mxPoint x="702.9999999999998" y="579.5" as="targetPoint" />
          </mxGeometry>
        </mxCell>
        <mxCell id="qe6uHjUXgluFaMte2tlm-123" value="F" style="text;html=1;strokeColor=none;fillColor=none;align=center;verticalAlign=middle;whiteSpace=wrap;rounded=0;" vertex="1" parent="1">
          <mxGeometry x="463" y="510" width="40" height="20" as="geometry" />
        </mxCell>
        <mxCell id="qe6uHjUXgluFaMte2tlm-124" value="" style="endArrow=none;html=1;" edge="1" parent="1">
          <mxGeometry width="50" height="50" relative="1" as="geometry">
            <mxPoint x="577.5" y="660" as="sourcePoint" />
            <mxPoint x="577.9999999999998" y="620" as="targetPoint" />
          </mxGeometry>
        </mxCell>
        <mxCell id="qe6uHjUXgluFaMte2tlm-125" value="" style="endArrow=none;html=1;" edge="1" parent="1">
          <mxGeometry width="50" height="50" relative="1" as="geometry">
            <mxPoint x="577.5" y="540" as="sourcePoint" />
            <mxPoint x="577.9999999999998" y="500" as="targetPoint" />
          </mxGeometry>
        </mxCell>
        <mxCell id="qe6uHjUXgluFaMte2tlm-126" value="5" style="text;html=1;strokeColor=none;fillColor=none;align=center;verticalAlign=middle;whiteSpace=wrap;rounded=0;" vertex="1" parent="1">
          <mxGeometry x="623" y="510" width="40" height="20" as="geometry" />
        </mxCell>
        <mxCell id="qe6uHjUXgluFaMte2tlm-127" value="4" style="text;html=1;strokeColor=none;fillColor=none;align=center;verticalAlign=middle;whiteSpace=wrap;rounded=0;" vertex="1" parent="1">
          <mxGeometry x="463" y="550" width="40" height="20" as="geometry" />
        </mxCell>
        <mxCell id="qe6uHjUXgluFaMte2tlm-128" value="6" style="text;html=1;strokeColor=none;fillColor=none;align=center;verticalAlign=middle;whiteSpace=wrap;rounded=0;" vertex="1" parent="1">
          <mxGeometry x="463" y="590" width="40" height="20" as="geometry" />
        </mxCell>
        <mxCell id="qe6uHjUXgluFaMte2tlm-129" value="7" style="text;html=1;strokeColor=none;fillColor=none;align=center;verticalAlign=middle;whiteSpace=wrap;rounded=0;" vertex="1" parent="1">
          <mxGeometry x="493" y="630" width="40" height="20" as="geometry" />
        </mxCell>
        <mxCell id="qe6uHjUXgluFaMte2tlm-130" value="2" style="text;html=1;strokeColor=none;fillColor=none;align=center;verticalAlign=middle;whiteSpace=wrap;rounded=0;" vertex="1" parent="1">
          <mxGeometry x="623" y="630" width="40" height="20" as="geometry" />
        </mxCell>
        <mxCell id="qe6uHjUXgluFaMte2tlm-131" value="7" style="text;html=1;strokeColor=none;fillColor=none;align=center;verticalAlign=middle;whiteSpace=wrap;rounded=0;" vertex="1" parent="1">
          <mxGeometry x="653" y="590" width="40" height="20" as="geometry" />
        </mxCell>
        <mxCell id="qe6uHjUXgluFaMte2tlm-132" value="5" style="text;html=1;strokeColor=none;fillColor=none;align=center;verticalAlign=middle;whiteSpace=wrap;rounded=0;" vertex="1" parent="1">
          <mxGeometry x="653" y="550" width="40" height="20" as="geometry" />
        </mxCell>
        <mxCell id="qe6uHjUXgluFaMte2tlm-133" value="" style="endArrow=classic;html=1;" edge="1" parent="1">
          <mxGeometry width="50" height="50" relative="1" as="geometry">
            <mxPoint x="350" y="590" as="sourcePoint" />
            <mxPoint x="450" y="580" as="targetPoint" />
          </mxGeometry>
        </mxCell>
        <mxCell id="qe6uHjUXgluFaMte2tlm-134" value="" style="rounded=0;whiteSpace=wrap;html=1;" vertex="1" parent="1">
          <mxGeometry x="413" y="-260" width="250" height="160" as="geometry" />
        </mxCell>
        <mxCell id="qe6uHjUXgluFaMte2tlm-135" value="" style="endArrow=none;html=1;entryX=1;entryY=0.25;entryDx=0;entryDy=0;exitX=0;exitY=0.25;exitDx=0;exitDy=0;" edge="1" parent="1" source="qe6uHjUXgluFaMte2tlm-134" target="qe6uHjUXgluFaMte2tlm-134">
          <mxGeometry width="50" height="50" relative="1" as="geometry">
            <mxPoint x="413" y="-240" as="sourcePoint" />
            <mxPoint x="463" y="-290" as="targetPoint" />
          </mxGeometry>
        </mxCell>
        <mxCell id="qe6uHjUXgluFaMte2tlm-136" value="" style="endArrow=none;html=1;entryX=1;entryY=0.25;entryDx=0;entryDy=0;exitX=0;exitY=0.25;exitDx=0;exitDy=0;" edge="1" parent="1">
          <mxGeometry width="50" height="50" relative="1" as="geometry">
            <mxPoint x="412.9999999999998" y="-140" as="sourcePoint" />
            <mxPoint x="662.9999999999998" y="-140" as="targetPoint" />
          </mxGeometry>
        </mxCell>
        <mxCell id="qe6uHjUXgluFaMte2tlm-137" value="" style="endArrow=none;html=1;" edge="1" parent="1">
          <mxGeometry width="50" height="50" relative="1" as="geometry">
            <mxPoint x="476" y="-140" as="sourcePoint" />
            <mxPoint x="476" y="-220" as="targetPoint" />
          </mxGeometry>
        </mxCell>
        <mxCell id="qe6uHjUXgluFaMte2tlm-138" value="" style="endArrow=none;html=1;" edge="1" parent="1">
          <mxGeometry width="50" height="50" relative="1" as="geometry">
            <mxPoint x="604" y="-140" as="sourcePoint" />
            <mxPoint x="604" y="-220" as="targetPoint" />
          </mxGeometry>
        </mxCell>
        <mxCell id="qe6uHjUXgluFaMte2tlm-139" value="" style="endArrow=none;html=1;" edge="1" parent="1">
          <mxGeometry width="50" height="50" relative="1" as="geometry">
            <mxPoint x="412.9999999999998" y="-180" as="sourcePoint" />
            <mxPoint x="472.9999999999998" y="-180" as="targetPoint" />
          </mxGeometry>
        </mxCell>
        <mxCell id="qe6uHjUXgluFaMte2tlm-140" value="" style="endArrow=none;html=1;" edge="1" parent="1">
          <mxGeometry width="50" height="50" relative="1" as="geometry">
            <mxPoint x="602.9999999999998" y="-180.5" as="sourcePoint" />
            <mxPoint x="662.9999999999998" y="-180.5" as="targetPoint" />
          </mxGeometry>
        </mxCell>
        <mxCell id="qe6uHjUXgluFaMte2tlm-141" value="G" style="text;html=1;strokeColor=none;fillColor=none;align=center;verticalAlign=middle;whiteSpace=wrap;rounded=0;" vertex="1" parent="1">
          <mxGeometry x="423" y="-250" width="40" height="20" as="geometry" />
        </mxCell>
        <mxCell id="qe6uHjUXgluFaMte2tlm-142" value="" style="endArrow=none;html=1;" edge="1" parent="1">
          <mxGeometry width="50" height="50" relative="1" as="geometry">
            <mxPoint x="537.5" y="-100" as="sourcePoint" />
            <mxPoint x="537.9999999999998" y="-140" as="targetPoint" />
          </mxGeometry>
        </mxCell>
        <mxCell id="qe6uHjUXgluFaMte2tlm-143" value="" style="endArrow=none;html=1;" edge="1" parent="1">
          <mxGeometry width="50" height="50" relative="1" as="geometry">
            <mxPoint x="537.5" y="-220" as="sourcePoint" />
            <mxPoint x="537.9999999999998" y="-260" as="targetPoint" />
          </mxGeometry>
        </mxCell>
        <mxCell id="qe6uHjUXgluFaMte2tlm-144" value="3" style="text;html=1;strokeColor=none;fillColor=none;align=center;verticalAlign=middle;whiteSpace=wrap;rounded=0;" vertex="1" parent="1">
          <mxGeometry x="583" y="-250" width="40" height="20" as="geometry" />
        </mxCell>
        <mxCell id="qe6uHjUXgluFaMte2tlm-145" value="6" style="text;html=1;strokeColor=none;fillColor=none;align=center;verticalAlign=middle;whiteSpace=wrap;rounded=0;" vertex="1" parent="1">
          <mxGeometry x="423" y="-210" width="40" height="20" as="geometry" />
        </mxCell>
        <mxCell id="qe6uHjUXgluFaMte2tlm-146" value="8" style="text;html=1;strokeColor=none;fillColor=none;align=center;verticalAlign=middle;whiteSpace=wrap;rounded=0;" vertex="1" parent="1">
          <mxGeometry x="423" y="-170" width="40" height="20" as="geometry" />
        </mxCell>
        <mxCell id="qe6uHjUXgluFaMte2tlm-147" value="5" style="text;html=1;strokeColor=none;fillColor=none;align=center;verticalAlign=middle;whiteSpace=wrap;rounded=0;" vertex="1" parent="1">
          <mxGeometry x="453" y="-130" width="40" height="20" as="geometry" />
        </mxCell>
        <mxCell id="qe6uHjUXgluFaMte2tlm-148" value="2" style="text;html=1;strokeColor=none;fillColor=none;align=center;verticalAlign=middle;whiteSpace=wrap;rounded=0;" vertex="1" parent="1">
          <mxGeometry x="583" y="-130" width="40" height="20" as="geometry" />
        </mxCell>
        <mxCell id="qe6uHjUXgluFaMte2tlm-149" value="5" style="text;html=1;strokeColor=none;fillColor=none;align=center;verticalAlign=middle;whiteSpace=wrap;rounded=0;" vertex="1" parent="1">
          <mxGeometry x="613" y="-170" width="40" height="20" as="geometry" />
        </mxCell>
        <mxCell id="qe6uHjUXgluFaMte2tlm-150" value="3" style="text;html=1;strokeColor=none;fillColor=none;align=center;verticalAlign=middle;whiteSpace=wrap;rounded=0;" vertex="1" parent="1">
          <mxGeometry x="613" y="-210" width="40" height="20" as="geometry" />
        </mxCell>
        <mxCell id="qe6uHjUXgluFaMte2tlm-151" value="" style="endArrow=classic;html=1;" edge="1" parent="1">
          <mxGeometry width="50" height="50" relative="1" as="geometry">
            <mxPoint x="220" y="105" as="sourcePoint" />
            <mxPoint x="400" y="-180" as="targetPoint" />
          </mxGeometry>
        </mxCell>
        <mxCell id="qe6uHjUXgluFaMte2tlm-152" value="" style="rounded=0;whiteSpace=wrap;html=1;" vertex="1" parent="1">
          <mxGeometry x="930" y="30" width="250" height="160" as="geometry" />
        </mxCell>
        <mxCell id="qe6uHjUXgluFaMte2tlm-153" value="" style="endArrow=none;html=1;entryX=1;entryY=0.25;entryDx=0;entryDy=0;exitX=0;exitY=0.25;exitDx=0;exitDy=0;" edge="1" parent="1" source="qe6uHjUXgluFaMte2tlm-152" target="qe6uHjUXgluFaMte2tlm-152">
          <mxGeometry width="50" height="50" relative="1" as="geometry">
            <mxPoint x="930" y="50" as="sourcePoint" />
            <mxPoint x="980" as="targetPoint" />
          </mxGeometry>
        </mxCell>
        <mxCell id="qe6uHjUXgluFaMte2tlm-154" value="" style="endArrow=none;html=1;entryX=1;entryY=0.25;entryDx=0;entryDy=0;exitX=0;exitY=0.25;exitDx=0;exitDy=0;" edge="1" parent="1">
          <mxGeometry width="50" height="50" relative="1" as="geometry">
            <mxPoint x="929.9999999999998" y="150" as="sourcePoint" />
            <mxPoint x="1179.9999999999998" y="150" as="targetPoint" />
          </mxGeometry>
        </mxCell>
        <mxCell id="qe6uHjUXgluFaMte2tlm-155" value="" style="endArrow=none;html=1;" edge="1" parent="1">
          <mxGeometry width="50" height="50" relative="1" as="geometry">
            <mxPoint x="993" y="150" as="sourcePoint" />
            <mxPoint x="993" y="70" as="targetPoint" />
          </mxGeometry>
        </mxCell>
        <mxCell id="qe6uHjUXgluFaMte2tlm-156" value="" style="endArrow=none;html=1;" edge="1" parent="1">
          <mxGeometry width="50" height="50" relative="1" as="geometry">
            <mxPoint x="1121" y="150" as="sourcePoint" />
            <mxPoint x="1121" y="70" as="targetPoint" />
          </mxGeometry>
        </mxCell>
        <mxCell id="qe6uHjUXgluFaMte2tlm-157" value="" style="endArrow=none;html=1;" edge="1" parent="1">
          <mxGeometry width="50" height="50" relative="1" as="geometry">
            <mxPoint x="929.9999999999998" y="110" as="sourcePoint" />
            <mxPoint x="989.9999999999998" y="110" as="targetPoint" />
          </mxGeometry>
        </mxCell>
        <mxCell id="qe6uHjUXgluFaMte2tlm-158" value="" style="endArrow=none;html=1;" edge="1" parent="1">
          <mxGeometry width="50" height="50" relative="1" as="geometry">
            <mxPoint x="1119.9999999999998" y="109.5" as="sourcePoint" />
            <mxPoint x="1179.9999999999998" y="109.5" as="targetPoint" />
          </mxGeometry>
        </mxCell>
        <mxCell id="qe6uHjUXgluFaMte2tlm-159" value="H" style="text;html=1;strokeColor=none;fillColor=none;align=center;verticalAlign=middle;whiteSpace=wrap;rounded=0;" vertex="1" parent="1">
          <mxGeometry x="940" y="40" width="40" height="20" as="geometry" />
        </mxCell>
        <mxCell id="qe6uHjUXgluFaMte2tlm-160" value="" style="endArrow=none;html=1;" edge="1" parent="1">
          <mxGeometry width="50" height="50" relative="1" as="geometry">
            <mxPoint x="1054.5" y="190" as="sourcePoint" />
            <mxPoint x="1054.9999999999998" y="150" as="targetPoint" />
          </mxGeometry>
        </mxCell>
        <mxCell id="qe6uHjUXgluFaMte2tlm-161" value="" style="endArrow=none;html=1;" edge="1" parent="1">
          <mxGeometry width="50" height="50" relative="1" as="geometry">
            <mxPoint x="1054.5" y="70" as="sourcePoint" />
            <mxPoint x="1054.9999999999998" y="30" as="targetPoint" />
          </mxGeometry>
        </mxCell>
        <mxCell id="qe6uHjUXgluFaMte2tlm-162" value="5" style="text;html=1;strokeColor=none;fillColor=none;align=center;verticalAlign=middle;whiteSpace=wrap;rounded=0;" vertex="1" parent="1">
          <mxGeometry x="1100" y="40" width="40" height="20" as="geometry" />
        </mxCell>
        <mxCell id="qe6uHjUXgluFaMte2tlm-163" value="3" style="text;html=1;strokeColor=none;fillColor=none;align=center;verticalAlign=middle;whiteSpace=wrap;rounded=0;" vertex="1" parent="1">
          <mxGeometry x="940" y="80" width="40" height="20" as="geometry" />
        </mxCell>
        <mxCell id="qe6uHjUXgluFaMte2tlm-164" value="7" style="text;html=1;strokeColor=none;fillColor=none;align=center;verticalAlign=middle;whiteSpace=wrap;rounded=0;" vertex="1" parent="1">
          <mxGeometry x="940" y="120" width="40" height="20" as="geometry" />
        </mxCell>
        <mxCell id="qe6uHjUXgluFaMte2tlm-165" value="8" style="text;html=1;strokeColor=none;fillColor=none;align=center;verticalAlign=middle;whiteSpace=wrap;rounded=0;" vertex="1" parent="1">
          <mxGeometry x="970" y="160" width="40" height="20" as="geometry" />
        </mxCell>
        <mxCell id="qe6uHjUXgluFaMte2tlm-166" value="3" style="text;html=1;strokeColor=none;fillColor=none;align=center;verticalAlign=middle;whiteSpace=wrap;rounded=0;" vertex="1" parent="1">
          <mxGeometry x="1100" y="160" width="40" height="20" as="geometry" />
        </mxCell>
        <mxCell id="qe6uHjUXgluFaMte2tlm-167" value="8" style="text;html=1;strokeColor=none;fillColor=none;align=center;verticalAlign=middle;whiteSpace=wrap;rounded=0;" vertex="1" parent="1">
          <mxGeometry x="1130" y="120" width="40" height="20" as="geometry" />
        </mxCell>
        <mxCell id="qe6uHjUXgluFaMte2tlm-168" value="5" style="text;html=1;strokeColor=none;fillColor=none;align=center;verticalAlign=middle;whiteSpace=wrap;rounded=0;" vertex="1" parent="1">
          <mxGeometry x="1130" y="80" width="40" height="20" as="geometry" />
        </mxCell>
        <mxCell id="qe6uHjUXgluFaMte2tlm-169" value="" style="endArrow=classic;html=1;entryX=0;entryY=0.25;entryDx=0;entryDy=0;" edge="1" parent="1" target="qe6uHjUXgluFaMte2tlm-152">
          <mxGeometry width="50" height="50" relative="1" as="geometry">
            <mxPoint x="663" y="30" as="sourcePoint" />
            <mxPoint x="840" y="40" as="targetPoint" />
          </mxGeometry>
        </mxCell>
        <mxCell id="qe6uHjUXgluFaMte2tlm-170" value="" style="endArrow=classic;html=1;entryX=0;entryY=0.5;entryDx=0;entryDy=0;" edge="1" parent="1" target="qe6uHjUXgluFaMte2tlm-152">
          <mxGeometry width="50" height="50" relative="1" as="geometry">
            <mxPoint x="693" y="275" as="sourcePoint" />
            <mxPoint x="850" y="100" as="targetPoint" />
          </mxGeometry>
        </mxCell>
        <mxCell id="qe6uHjUXgluFaMte2tlm-171" value="" style="endArrow=classic;html=1;entryX=-0.024;entryY=0.169;entryDx=0;entryDy=0;entryPerimeter=0;" edge="1" parent="1" target="qe6uHjUXgluFaMte2tlm-192">
          <mxGeometry width="50" height="50" relative="1" as="geometry">
            <mxPoint x="663" y="65" as="sourcePoint" />
            <mxPoint x="840" y="390" as="targetPoint" />
          </mxGeometry>
        </mxCell>
        <mxCell id="qe6uHjUXgluFaMte2tlm-172" value="" style="endArrow=classic;html=1;entryX=-0.014;entryY=0.884;entryDx=0;entryDy=0;entryPerimeter=0;" edge="1" parent="1" target="qe6uHjUXgluFaMte2tlm-152">
          <mxGeometry width="50" height="50" relative="1" as="geometry">
            <mxPoint x="703" y="500" as="sourcePoint" />
            <mxPoint x="840" y="320" as="targetPoint" />
          </mxGeometry>
        </mxCell>
        <mxCell id="qe6uHjUXgluFaMte2tlm-174" value="" style="rounded=0;whiteSpace=wrap;html=1;" vertex="1" parent="1">
          <mxGeometry x="453" y="720" width="250" height="160" as="geometry" />
        </mxCell>
        <mxCell id="qe6uHjUXgluFaMte2tlm-175" value="" style="endArrow=none;html=1;entryX=1;entryY=0.25;entryDx=0;entryDy=0;exitX=0;exitY=0.25;exitDx=0;exitDy=0;" edge="1" parent="1" source="qe6uHjUXgluFaMte2tlm-174" target="qe6uHjUXgluFaMte2tlm-174">
          <mxGeometry width="50" height="50" relative="1" as="geometry">
            <mxPoint x="453" y="740" as="sourcePoint" />
            <mxPoint x="503" y="690" as="targetPoint" />
          </mxGeometry>
        </mxCell>
        <mxCell id="qe6uHjUXgluFaMte2tlm-176" value="" style="endArrow=none;html=1;entryX=1;entryY=0.25;entryDx=0;entryDy=0;exitX=0;exitY=0.25;exitDx=0;exitDy=0;" edge="1" parent="1">
          <mxGeometry width="50" height="50" relative="1" as="geometry">
            <mxPoint x="452.9999999999998" y="840" as="sourcePoint" />
            <mxPoint x="702.9999999999998" y="840" as="targetPoint" />
          </mxGeometry>
        </mxCell>
        <mxCell id="qe6uHjUXgluFaMte2tlm-177" value="" style="endArrow=none;html=1;" edge="1" parent="1">
          <mxGeometry width="50" height="50" relative="1" as="geometry">
            <mxPoint x="516" y="840" as="sourcePoint" />
            <mxPoint x="516" y="760" as="targetPoint" />
          </mxGeometry>
        </mxCell>
        <mxCell id="qe6uHjUXgluFaMte2tlm-178" value="" style="endArrow=none;html=1;" edge="1" parent="1">
          <mxGeometry width="50" height="50" relative="1" as="geometry">
            <mxPoint x="644" y="840" as="sourcePoint" />
            <mxPoint x="644" y="760" as="targetPoint" />
          </mxGeometry>
        </mxCell>
        <mxCell id="qe6uHjUXgluFaMte2tlm-179" value="" style="endArrow=none;html=1;" edge="1" parent="1">
          <mxGeometry width="50" height="50" relative="1" as="geometry">
            <mxPoint x="452.9999999999998" y="800" as="sourcePoint" />
            <mxPoint x="512.9999999999998" y="800" as="targetPoint" />
          </mxGeometry>
        </mxCell>
        <mxCell id="qe6uHjUXgluFaMte2tlm-180" value="" style="endArrow=none;html=1;" edge="1" parent="1">
          <mxGeometry width="50" height="50" relative="1" as="geometry">
            <mxPoint x="642.9999999999998" y="799.5" as="sourcePoint" />
            <mxPoint x="702.9999999999998" y="799.5" as="targetPoint" />
          </mxGeometry>
        </mxCell>
        <mxCell id="qe6uHjUXgluFaMte2tlm-181" value="I" style="text;html=1;strokeColor=none;fillColor=none;align=center;verticalAlign=middle;whiteSpace=wrap;rounded=0;" vertex="1" parent="1">
          <mxGeometry x="463" y="730" width="40" height="20" as="geometry" />
        </mxCell>
        <mxCell id="qe6uHjUXgluFaMte2tlm-182" value="" style="endArrow=none;html=1;" edge="1" parent="1">
          <mxGeometry width="50" height="50" relative="1" as="geometry">
            <mxPoint x="577.5" y="880" as="sourcePoint" />
            <mxPoint x="577.9999999999998" y="840" as="targetPoint" />
          </mxGeometry>
        </mxCell>
        <mxCell id="qe6uHjUXgluFaMte2tlm-183" value="" style="endArrow=none;html=1;" edge="1" parent="1">
          <mxGeometry width="50" height="50" relative="1" as="geometry">
            <mxPoint x="577.5" y="760" as="sourcePoint" />
            <mxPoint x="577.9999999999998" y="720" as="targetPoint" />
          </mxGeometry>
        </mxCell>
        <mxCell id="qe6uHjUXgluFaMte2tlm-184" value="4" style="text;html=1;strokeColor=none;fillColor=none;align=center;verticalAlign=middle;whiteSpace=wrap;rounded=0;" vertex="1" parent="1">
          <mxGeometry x="623" y="730" width="40" height="20" as="geometry" />
        </mxCell>
        <mxCell id="qe6uHjUXgluFaMte2tlm-185" value="4" style="text;html=1;strokeColor=none;fillColor=none;align=center;verticalAlign=middle;whiteSpace=wrap;rounded=0;" vertex="1" parent="1">
          <mxGeometry x="463" y="770" width="40" height="20" as="geometry" />
        </mxCell>
        <mxCell id="qe6uHjUXgluFaMte2tlm-186" value="6" style="text;html=1;strokeColor=none;fillColor=none;align=center;verticalAlign=middle;whiteSpace=wrap;rounded=0;" vertex="1" parent="1">
          <mxGeometry x="463" y="810" width="40" height="20" as="geometry" />
        </mxCell>
        <mxCell id="qe6uHjUXgluFaMte2tlm-187" value="9" style="text;html=1;strokeColor=none;fillColor=none;align=center;verticalAlign=middle;whiteSpace=wrap;rounded=0;" vertex="1" parent="1">
          <mxGeometry x="493" y="850" width="40" height="20" as="geometry" />
        </mxCell>
        <mxCell id="qe6uHjUXgluFaMte2tlm-188" value="5" style="text;html=1;strokeColor=none;fillColor=none;align=center;verticalAlign=middle;whiteSpace=wrap;rounded=0;" vertex="1" parent="1">
          <mxGeometry x="623" y="850" width="40" height="20" as="geometry" />
        </mxCell>
        <mxCell id="qe6uHjUXgluFaMte2tlm-189" value="9" style="text;html=1;strokeColor=none;fillColor=none;align=center;verticalAlign=middle;whiteSpace=wrap;rounded=0;" vertex="1" parent="1">
          <mxGeometry x="653" y="810" width="40" height="20" as="geometry" />
        </mxCell>
        <mxCell id="qe6uHjUXgluFaMte2tlm-190" value="4" style="text;html=1;strokeColor=none;fillColor=none;align=center;verticalAlign=middle;whiteSpace=wrap;rounded=0;" vertex="1" parent="1">
          <mxGeometry x="653" y="770" width="40" height="20" as="geometry" />
        </mxCell>
        <mxCell id="qe6uHjUXgluFaMte2tlm-191" value="" style="endArrow=classic;html=1;" edge="1" parent="1">
          <mxGeometry width="50" height="50" relative="1" as="geometry">
            <mxPoint x="320" y="665" as="sourcePoint" />
            <mxPoint x="440" y="790" as="targetPoint" />
          </mxGeometry>
        </mxCell>
        <mxCell id="qe6uHjUXgluFaMte2tlm-192" value="" style="rounded=0;whiteSpace=wrap;html=1;" vertex="1" parent="1">
          <mxGeometry x="930" y="360" width="250" height="160" as="geometry" />
        </mxCell>
        <mxCell id="qe6uHjUXgluFaMte2tlm-193" value="" style="endArrow=none;html=1;entryX=1;entryY=0.25;entryDx=0;entryDy=0;exitX=0;exitY=0.25;exitDx=0;exitDy=0;" edge="1" parent="1" source="qe6uHjUXgluFaMte2tlm-192" target="qe6uHjUXgluFaMte2tlm-192">
          <mxGeometry width="50" height="50" relative="1" as="geometry">
            <mxPoint x="930" y="380" as="sourcePoint" />
            <mxPoint x="980" y="330" as="targetPoint" />
          </mxGeometry>
        </mxCell>
        <mxCell id="qe6uHjUXgluFaMte2tlm-194" value="" style="endArrow=none;html=1;entryX=1;entryY=0.25;entryDx=0;entryDy=0;exitX=0;exitY=0.25;exitDx=0;exitDy=0;" edge="1" parent="1">
          <mxGeometry width="50" height="50" relative="1" as="geometry">
            <mxPoint x="930" y="480" as="sourcePoint" />
            <mxPoint x="1180" y="480" as="targetPoint" />
          </mxGeometry>
        </mxCell>
        <mxCell id="qe6uHjUXgluFaMte2tlm-195" value="" style="endArrow=none;html=1;" edge="1" parent="1">
          <mxGeometry width="50" height="50" relative="1" as="geometry">
            <mxPoint x="993" y="480" as="sourcePoint" />
            <mxPoint x="993" y="400" as="targetPoint" />
          </mxGeometry>
        </mxCell>
        <mxCell id="qe6uHjUXgluFaMte2tlm-196" value="" style="endArrow=none;html=1;" edge="1" parent="1">
          <mxGeometry width="50" height="50" relative="1" as="geometry">
            <mxPoint x="1121" y="480" as="sourcePoint" />
            <mxPoint x="1121" y="400" as="targetPoint" />
          </mxGeometry>
        </mxCell>
        <mxCell id="qe6uHjUXgluFaMte2tlm-197" value="" style="endArrow=none;html=1;" edge="1" parent="1">
          <mxGeometry width="50" height="50" relative="1" as="geometry">
            <mxPoint x="930" y="440" as="sourcePoint" />
            <mxPoint x="990" y="440" as="targetPoint" />
          </mxGeometry>
        </mxCell>
        <mxCell id="qe6uHjUXgluFaMte2tlm-198" value="" style="endArrow=none;html=1;" edge="1" parent="1">
          <mxGeometry width="50" height="50" relative="1" as="geometry">
            <mxPoint x="1120" y="439.5" as="sourcePoint" />
            <mxPoint x="1180" y="439.5" as="targetPoint" />
          </mxGeometry>
        </mxCell>
        <mxCell id="qe6uHjUXgluFaMte2tlm-199" value="J" style="text;html=1;strokeColor=none;fillColor=none;align=center;verticalAlign=middle;whiteSpace=wrap;rounded=0;" vertex="1" parent="1">
          <mxGeometry x="940" y="370" width="40" height="20" as="geometry" />
        </mxCell>
        <mxCell id="qe6uHjUXgluFaMte2tlm-200" value="" style="endArrow=none;html=1;" edge="1" parent="1">
          <mxGeometry width="50" height="50" relative="1" as="geometry">
            <mxPoint x="1054.5" y="520" as="sourcePoint" />
            <mxPoint x="1055" y="480" as="targetPoint" />
          </mxGeometry>
        </mxCell>
        <mxCell id="qe6uHjUXgluFaMte2tlm-201" value="" style="endArrow=none;html=1;" edge="1" parent="1">
          <mxGeometry width="50" height="50" relative="1" as="geometry">
            <mxPoint x="1054.5" y="400" as="sourcePoint" />
            <mxPoint x="1055" y="360" as="targetPoint" />
          </mxGeometry>
        </mxCell>
        <mxCell id="qe6uHjUXgluFaMte2tlm-202" value="4" style="text;html=1;strokeColor=none;fillColor=none;align=center;verticalAlign=middle;whiteSpace=wrap;rounded=0;" vertex="1" parent="1">
          <mxGeometry x="1100" y="370" width="40" height="20" as="geometry" />
        </mxCell>
        <mxCell id="qe6uHjUXgluFaMte2tlm-203" value="3" style="text;html=1;strokeColor=none;fillColor=none;align=center;verticalAlign=middle;whiteSpace=wrap;rounded=0;" vertex="1" parent="1">
          <mxGeometry x="940" y="410" width="40" height="20" as="geometry" />
        </mxCell>
        <mxCell id="qe6uHjUXgluFaMte2tlm-204" value="7" style="text;html=1;strokeColor=none;fillColor=none;align=center;verticalAlign=middle;whiteSpace=wrap;rounded=0;" vertex="1" parent="1">
          <mxGeometry x="940" y="450" width="40" height="20" as="geometry" />
        </mxCell>
        <mxCell id="qe6uHjUXgluFaMte2tlm-205" value="6" style="text;html=1;strokeColor=none;fillColor=none;align=center;verticalAlign=middle;whiteSpace=wrap;rounded=0;" vertex="1" parent="1">
          <mxGeometry x="970" y="490" width="40" height="20" as="geometry" />
        </mxCell>
        <mxCell id="qe6uHjUXgluFaMte2tlm-206" value="2" style="text;html=1;strokeColor=none;fillColor=none;align=center;verticalAlign=middle;whiteSpace=wrap;rounded=0;" vertex="1" parent="1">
          <mxGeometry x="1100" y="490" width="40" height="20" as="geometry" />
        </mxCell>
        <mxCell id="qe6uHjUXgluFaMte2tlm-207" value="6" style="text;html=1;strokeColor=none;fillColor=none;align=center;verticalAlign=middle;whiteSpace=wrap;rounded=0;" vertex="1" parent="1">
          <mxGeometry x="1130" y="450" width="40" height="20" as="geometry" />
        </mxCell>
        <mxCell id="qe6uHjUXgluFaMte2tlm-208" value="4" style="text;html=1;strokeColor=none;fillColor=none;align=center;verticalAlign=middle;whiteSpace=wrap;rounded=0;" vertex="1" parent="1">
          <mxGeometry x="1130" y="410" width="40" height="20" as="geometry" />
        </mxCell>
        <mxCell id="qe6uHjUXgluFaMte2tlm-209" value="" style="endArrow=classic;html=1;entryX=-0.008;entryY=0.419;entryDx=0;entryDy=0;entryPerimeter=0;" edge="1" parent="1" target="qe6uHjUXgluFaMte2tlm-192">
          <mxGeometry width="50" height="50" relative="1" as="geometry">
            <mxPoint x="690" y="320" as="sourcePoint" />
            <mxPoint x="840" y="430" as="targetPoint" />
          </mxGeometry>
        </mxCell>
        <mxCell id="qe6uHjUXgluFaMte2tlm-210" value="" style="endArrow=classic;html=1;entryX=0;entryY=0.631;entryDx=0;entryDy=0;entryPerimeter=0;" edge="1" parent="1" target="qe6uHjUXgluFaMte2tlm-192">
          <mxGeometry width="50" height="50" relative="1" as="geometry">
            <mxPoint x="703" y="560" as="sourcePoint" />
            <mxPoint x="840" y="470" as="targetPoint" />
          </mxGeometry>
        </mxCell>
        <mxCell id="qe6uHjUXgluFaMte2tlm-211" value="" style="rounded=0;whiteSpace=wrap;html=1;" vertex="1" parent="1">
          <mxGeometry x="930" y="-250" width="250" height="160" as="geometry" />
        </mxCell>
        <mxCell id="qe6uHjUXgluFaMte2tlm-212" value="" style="endArrow=none;html=1;entryX=1;entryY=0.25;entryDx=0;entryDy=0;exitX=0;exitY=0.25;exitDx=0;exitDy=0;" edge="1" parent="1" source="qe6uHjUXgluFaMte2tlm-211" target="qe6uHjUXgluFaMte2tlm-211">
          <mxGeometry width="50" height="50" relative="1" as="geometry">
            <mxPoint x="930" y="-230" as="sourcePoint" />
            <mxPoint x="980" y="-280" as="targetPoint" />
          </mxGeometry>
        </mxCell>
        <mxCell id="qe6uHjUXgluFaMte2tlm-213" value="" style="endArrow=none;html=1;entryX=1;entryY=0.25;entryDx=0;entryDy=0;exitX=0;exitY=0.25;exitDx=0;exitDy=0;" edge="1" parent="1">
          <mxGeometry width="50" height="50" relative="1" as="geometry">
            <mxPoint x="930" y="-130" as="sourcePoint" />
            <mxPoint x="1180" y="-130" as="targetPoint" />
          </mxGeometry>
        </mxCell>
        <mxCell id="qe6uHjUXgluFaMte2tlm-214" value="" style="endArrow=none;html=1;" edge="1" parent="1">
          <mxGeometry width="50" height="50" relative="1" as="geometry">
            <mxPoint x="993" y="-130" as="sourcePoint" />
            <mxPoint x="993" y="-210" as="targetPoint" />
          </mxGeometry>
        </mxCell>
        <mxCell id="qe6uHjUXgluFaMte2tlm-215" value="" style="endArrow=none;html=1;" edge="1" parent="1">
          <mxGeometry width="50" height="50" relative="1" as="geometry">
            <mxPoint x="1121" y="-130" as="sourcePoint" />
            <mxPoint x="1121" y="-210" as="targetPoint" />
          </mxGeometry>
        </mxCell>
        <mxCell id="qe6uHjUXgluFaMte2tlm-216" value="" style="endArrow=none;html=1;" edge="1" parent="1">
          <mxGeometry width="50" height="50" relative="1" as="geometry">
            <mxPoint x="930" y="-170" as="sourcePoint" />
            <mxPoint x="990" y="-170" as="targetPoint" />
          </mxGeometry>
        </mxCell>
        <mxCell id="qe6uHjUXgluFaMte2tlm-217" value="" style="endArrow=none;html=1;" edge="1" parent="1">
          <mxGeometry width="50" height="50" relative="1" as="geometry">
            <mxPoint x="1120" y="-170.5" as="sourcePoint" />
            <mxPoint x="1180" y="-170.5" as="targetPoint" />
          </mxGeometry>
        </mxCell>
        <mxCell id="qe6uHjUXgluFaMte2tlm-218" value="K" style="text;html=1;strokeColor=none;fillColor=none;align=center;verticalAlign=middle;whiteSpace=wrap;rounded=0;" vertex="1" parent="1">
          <mxGeometry x="940" y="-240" width="40" height="20" as="geometry" />
        </mxCell>
        <mxCell id="qe6uHjUXgluFaMte2tlm-219" value="" style="endArrow=none;html=1;" edge="1" parent="1" target="qe6uHjUXgluFaMte2tlm-211">
          <mxGeometry width="50" height="50" relative="1" as="geometry">
            <mxPoint x="1054.5" y="-90" as="sourcePoint" />
            <mxPoint x="1055" y="-130" as="targetPoint" />
          </mxGeometry>
        </mxCell>
        <mxCell id="qe6uHjUXgluFaMte2tlm-220" value="" style="endArrow=none;html=1;" edge="1" parent="1">
          <mxGeometry width="50" height="50" relative="1" as="geometry">
            <mxPoint x="1054.5" y="-210" as="sourcePoint" />
            <mxPoint x="1055" y="-250" as="targetPoint" />
          </mxGeometry>
        </mxCell>
        <mxCell id="qe6uHjUXgluFaMte2tlm-221" value="3" style="text;html=1;strokeColor=none;fillColor=none;align=center;verticalAlign=middle;whiteSpace=wrap;rounded=0;" vertex="1" parent="1">
          <mxGeometry x="1100" y="-240" width="40" height="20" as="geometry" />
        </mxCell>
        <mxCell id="qe6uHjUXgluFaMte2tlm-222" value="3" style="text;html=1;strokeColor=none;fillColor=none;align=center;verticalAlign=middle;whiteSpace=wrap;rounded=0;" vertex="1" parent="1">
          <mxGeometry x="940" y="-200" width="40" height="20" as="geometry" />
        </mxCell>
        <mxCell id="qe6uHjUXgluFaMte2tlm-223" value="5" style="text;html=1;strokeColor=none;fillColor=none;align=center;verticalAlign=middle;whiteSpace=wrap;rounded=0;" vertex="1" parent="1">
          <mxGeometry x="940" y="-160" width="40" height="20" as="geometry" />
        </mxCell>
        <mxCell id="qe6uHjUXgluFaMte2tlm-224" value="4" style="text;html=1;strokeColor=none;fillColor=none;align=center;verticalAlign=middle;whiteSpace=wrap;rounded=0;" vertex="1" parent="1">
          <mxGeometry x="970" y="-120" width="40" height="20" as="geometry" />
        </mxCell>
        <mxCell id="qe6uHjUXgluFaMte2tlm-225" value="1" style="text;html=1;strokeColor=none;fillColor=none;align=center;verticalAlign=middle;whiteSpace=wrap;rounded=0;" vertex="1" parent="1">
          <mxGeometry x="1100" y="-120" width="40" height="20" as="geometry" />
        </mxCell>
        <mxCell id="qe6uHjUXgluFaMte2tlm-226" value="4" style="text;html=1;strokeColor=none;fillColor=none;align=center;verticalAlign=middle;whiteSpace=wrap;rounded=0;" vertex="1" parent="1">
          <mxGeometry x="1130" y="-160" width="40" height="20" as="geometry" />
        </mxCell>
        <mxCell id="qe6uHjUXgluFaMte2tlm-227" value="3&lt;br&gt;" style="text;html=1;strokeColor=none;fillColor=none;align=center;verticalAlign=middle;whiteSpace=wrap;rounded=0;" vertex="1" parent="1">
          <mxGeometry x="1130" y="-200" width="40" height="20" as="geometry" />
        </mxCell>
        <mxCell id="qe6uHjUXgluFaMte2tlm-228" value="" style="endArrow=classic;html=1;entryX=0;entryY=0.375;entryDx=0;entryDy=0;entryPerimeter=0;" edge="1" parent="1" target="qe6uHjUXgluFaMte2tlm-211">
          <mxGeometry width="50" height="50" relative="1" as="geometry">
            <mxPoint x="653" y="-180" as="sourcePoint" />
            <mxPoint x="703" y="-230" as="targetPoint" />
          </mxGeometry>
        </mxCell>
        <mxCell id="qe6uHjUXgluFaMte2tlm-229" value="" style="endArrow=classic;html=1;entryX=0.25;entryY=1;entryDx=0;entryDy=0;exitX=0.25;exitY=0;exitDx=0;exitDy=0;" edge="1" parent="1" source="qe6uHjUXgluFaMte2tlm-152" target="qe6uHjUXgluFaMte2tlm-211">
          <mxGeometry width="50" height="50" relative="1" as="geometry">
            <mxPoint x="863" y="20" as="sourcePoint" />
            <mxPoint x="1140" y="10" as="targetPoint" />
          </mxGeometry>
        </mxCell>
        <mxCell id="qe6uHjUXgluFaMte2tlm-230" value="" style="rounded=0;whiteSpace=wrap;html=1;" vertex="1" parent="1">
          <mxGeometry x="930" y="590" width="250" height="160" as="geometry" />
        </mxCell>
        <mxCell id="qe6uHjUXgluFaMte2tlm-231" value="" style="endArrow=none;html=1;entryX=1;entryY=0.25;entryDx=0;entryDy=0;exitX=0;exitY=0.25;exitDx=0;exitDy=0;" edge="1" parent="1" source="qe6uHjUXgluFaMte2tlm-230" target="qe6uHjUXgluFaMte2tlm-230">
          <mxGeometry width="50" height="50" relative="1" as="geometry">
            <mxPoint x="930" y="610" as="sourcePoint" />
            <mxPoint x="980" y="560" as="targetPoint" />
          </mxGeometry>
        </mxCell>
        <mxCell id="qe6uHjUXgluFaMte2tlm-232" value="" style="endArrow=none;html=1;entryX=1;entryY=0.25;entryDx=0;entryDy=0;exitX=0;exitY=0.25;exitDx=0;exitDy=0;" edge="1" parent="1">
          <mxGeometry width="50" height="50" relative="1" as="geometry">
            <mxPoint x="930" y="710" as="sourcePoint" />
            <mxPoint x="1180" y="710" as="targetPoint" />
          </mxGeometry>
        </mxCell>
        <mxCell id="qe6uHjUXgluFaMte2tlm-233" value="" style="endArrow=none;html=1;" edge="1" parent="1">
          <mxGeometry width="50" height="50" relative="1" as="geometry">
            <mxPoint x="993" y="710" as="sourcePoint" />
            <mxPoint x="993" y="630" as="targetPoint" />
          </mxGeometry>
        </mxCell>
        <mxCell id="qe6uHjUXgluFaMte2tlm-234" value="" style="endArrow=none;html=1;" edge="1" parent="1">
          <mxGeometry width="50" height="50" relative="1" as="geometry">
            <mxPoint x="1121" y="710" as="sourcePoint" />
            <mxPoint x="1121" y="630" as="targetPoint" />
          </mxGeometry>
        </mxCell>
        <mxCell id="qe6uHjUXgluFaMte2tlm-235" value="" style="endArrow=none;html=1;" edge="1" parent="1">
          <mxGeometry width="50" height="50" relative="1" as="geometry">
            <mxPoint x="930" y="670" as="sourcePoint" />
            <mxPoint x="990" y="670" as="targetPoint" />
          </mxGeometry>
        </mxCell>
        <mxCell id="qe6uHjUXgluFaMte2tlm-236" value="" style="endArrow=none;html=1;" edge="1" parent="1">
          <mxGeometry width="50" height="50" relative="1" as="geometry">
            <mxPoint x="1120" y="669.5" as="sourcePoint" />
            <mxPoint x="1180" y="669.5" as="targetPoint" />
          </mxGeometry>
        </mxCell>
        <mxCell id="qe6uHjUXgluFaMte2tlm-237" value="L" style="text;html=1;strokeColor=none;fillColor=none;align=center;verticalAlign=middle;whiteSpace=wrap;rounded=0;" vertex="1" parent="1">
          <mxGeometry x="940" y="600" width="40" height="20" as="geometry" />
        </mxCell>
        <mxCell id="qe6uHjUXgluFaMte2tlm-238" value="" style="endArrow=none;html=1;" edge="1" parent="1">
          <mxGeometry width="50" height="50" relative="1" as="geometry">
            <mxPoint x="1054.5" y="750" as="sourcePoint" />
            <mxPoint x="1055" y="710" as="targetPoint" />
          </mxGeometry>
        </mxCell>
        <mxCell id="qe6uHjUXgluFaMte2tlm-239" value="" style="endArrow=none;html=1;" edge="1" parent="1">
          <mxGeometry width="50" height="50" relative="1" as="geometry">
            <mxPoint x="1054.5" y="630" as="sourcePoint" />
            <mxPoint x="1055" y="590" as="targetPoint" />
          </mxGeometry>
        </mxCell>
        <mxCell id="qe6uHjUXgluFaMte2tlm-240" value="3" style="text;html=1;strokeColor=none;fillColor=none;align=center;verticalAlign=middle;whiteSpace=wrap;rounded=0;" vertex="1" parent="1">
          <mxGeometry x="1100" y="600" width="40" height="20" as="geometry" />
        </mxCell>
        <mxCell id="qe6uHjUXgluFaMte2tlm-241" value="3" style="text;html=1;strokeColor=none;fillColor=none;align=center;verticalAlign=middle;whiteSpace=wrap;rounded=0;" vertex="1" parent="1">
          <mxGeometry x="940" y="640" width="40" height="20" as="geometry" />
        </mxCell>
        <mxCell id="qe6uHjUXgluFaMte2tlm-242" value="7" style="text;html=1;strokeColor=none;fillColor=none;align=center;verticalAlign=middle;whiteSpace=wrap;rounded=0;" vertex="1" parent="1">
          <mxGeometry x="940" y="680" width="40" height="20" as="geometry" />
        </mxCell>
        <mxCell id="qe6uHjUXgluFaMte2tlm-243" value="6" style="text;html=1;strokeColor=none;fillColor=none;align=center;verticalAlign=middle;whiteSpace=wrap;rounded=0;" vertex="1" parent="1">
          <mxGeometry x="970" y="720" width="40" height="20" as="geometry" />
        </mxCell>
        <mxCell id="qe6uHjUXgluFaMte2tlm-244" value="3" style="text;html=1;strokeColor=none;fillColor=none;align=center;verticalAlign=middle;whiteSpace=wrap;rounded=0;" vertex="1" parent="1">
          <mxGeometry x="1100" y="720" width="40" height="20" as="geometry" />
        </mxCell>
        <mxCell id="qe6uHjUXgluFaMte2tlm-245" value="6" style="text;html=1;strokeColor=none;fillColor=none;align=center;verticalAlign=middle;whiteSpace=wrap;rounded=0;" vertex="1" parent="1">
          <mxGeometry x="1130" y="680" width="40" height="20" as="geometry" />
        </mxCell>
        <mxCell id="qe6uHjUXgluFaMte2tlm-246" value="3" style="text;html=1;strokeColor=none;fillColor=none;align=center;verticalAlign=middle;whiteSpace=wrap;rounded=0;" vertex="1" parent="1">
          <mxGeometry x="1130" y="640" width="40" height="20" as="geometry" />
        </mxCell>
        <mxCell id="qe6uHjUXgluFaMte2tlm-247" value="" style="rounded=0;whiteSpace=wrap;html=1;" vertex="1" parent="1">
          <mxGeometry x="1241" y="790" width="250" height="160" as="geometry" />
        </mxCell>
        <mxCell id="qe6uHjUXgluFaMte2tlm-248" value="" style="endArrow=none;html=1;entryX=1;entryY=0.25;entryDx=0;entryDy=0;exitX=0;exitY=0.25;exitDx=0;exitDy=0;" edge="1" parent="1" source="qe6uHjUXgluFaMte2tlm-247" target="qe6uHjUXgluFaMte2tlm-247">
          <mxGeometry width="50" height="50" relative="1" as="geometry">
            <mxPoint x="1241" y="810" as="sourcePoint" />
            <mxPoint x="1291" y="760" as="targetPoint" />
          </mxGeometry>
        </mxCell>
        <mxCell id="qe6uHjUXgluFaMte2tlm-249" value="" style="endArrow=none;html=1;entryX=1;entryY=0.25;entryDx=0;entryDy=0;exitX=0;exitY=0.25;exitDx=0;exitDy=0;" edge="1" parent="1">
          <mxGeometry width="50" height="50" relative="1" as="geometry">
            <mxPoint x="1241" y="910" as="sourcePoint" />
            <mxPoint x="1491" y="910" as="targetPoint" />
          </mxGeometry>
        </mxCell>
        <mxCell id="qe6uHjUXgluFaMte2tlm-250" value="" style="endArrow=none;html=1;" edge="1" parent="1">
          <mxGeometry width="50" height="50" relative="1" as="geometry">
            <mxPoint x="1304" y="910" as="sourcePoint" />
            <mxPoint x="1304" y="830" as="targetPoint" />
          </mxGeometry>
        </mxCell>
        <mxCell id="qe6uHjUXgluFaMte2tlm-251" value="" style="endArrow=none;html=1;" edge="1" parent="1">
          <mxGeometry width="50" height="50" relative="1" as="geometry">
            <mxPoint x="1432" y="910" as="sourcePoint" />
            <mxPoint x="1432" y="830" as="targetPoint" />
          </mxGeometry>
        </mxCell>
        <mxCell id="qe6uHjUXgluFaMte2tlm-252" value="" style="endArrow=none;html=1;" edge="1" parent="1">
          <mxGeometry width="50" height="50" relative="1" as="geometry">
            <mxPoint x="1241" y="870" as="sourcePoint" />
            <mxPoint x="1301" y="870" as="targetPoint" />
          </mxGeometry>
        </mxCell>
        <mxCell id="qe6uHjUXgluFaMte2tlm-253" value="" style="endArrow=none;html=1;" edge="1" parent="1">
          <mxGeometry width="50" height="50" relative="1" as="geometry">
            <mxPoint x="1431" y="869.5" as="sourcePoint" />
            <mxPoint x="1491" y="869.5" as="targetPoint" />
          </mxGeometry>
        </mxCell>
        <mxCell id="qe6uHjUXgluFaMte2tlm-254" value="M" style="text;html=1;strokeColor=none;fillColor=none;align=center;verticalAlign=middle;whiteSpace=wrap;rounded=0;" vertex="1" parent="1">
          <mxGeometry x="1251" y="800" width="40" height="20" as="geometry" />
        </mxCell>
        <mxCell id="qe6uHjUXgluFaMte2tlm-255" value="" style="endArrow=none;html=1;" edge="1" parent="1">
          <mxGeometry width="50" height="50" relative="1" as="geometry">
            <mxPoint x="1365.5" y="950" as="sourcePoint" />
            <mxPoint x="1366" y="910" as="targetPoint" />
          </mxGeometry>
        </mxCell>
        <mxCell id="qe6uHjUXgluFaMte2tlm-256" value="" style="endArrow=none;html=1;" edge="1" parent="1">
          <mxGeometry width="50" height="50" relative="1" as="geometry">
            <mxPoint x="1365.5" y="830" as="sourcePoint" />
            <mxPoint x="1366" y="790" as="targetPoint" />
          </mxGeometry>
        </mxCell>
        <mxCell id="qe6uHjUXgluFaMte2tlm-257" value="2" style="text;html=1;strokeColor=none;fillColor=none;align=center;verticalAlign=middle;whiteSpace=wrap;rounded=0;" vertex="1" parent="1">
          <mxGeometry x="1411" y="800" width="40" height="20" as="geometry" />
        </mxCell>
        <mxCell id="qe6uHjUXgluFaMte2tlm-258" value="4" style="text;html=1;strokeColor=none;fillColor=none;align=center;verticalAlign=middle;whiteSpace=wrap;rounded=0;" vertex="1" parent="1">
          <mxGeometry x="1251" y="840" width="40" height="20" as="geometry" />
        </mxCell>
        <mxCell id="qe6uHjUXgluFaMte2tlm-259" value="6" style="text;html=1;strokeColor=none;fillColor=none;align=center;verticalAlign=middle;whiteSpace=wrap;rounded=0;" vertex="1" parent="1">
          <mxGeometry x="1251" y="880" width="40" height="20" as="geometry" />
        </mxCell>
        <mxCell id="qe6uHjUXgluFaMte2tlm-260" value="4" style="text;html=1;strokeColor=none;fillColor=none;align=center;verticalAlign=middle;whiteSpace=wrap;rounded=0;" vertex="1" parent="1">
          <mxGeometry x="1281" y="920" width="40" height="20" as="geometry" />
        </mxCell>
        <mxCell id="qe6uHjUXgluFaMte2tlm-261" value="2" style="text;html=1;strokeColor=none;fillColor=none;align=center;verticalAlign=middle;whiteSpace=wrap;rounded=0;" vertex="1" parent="1">
          <mxGeometry x="1411" y="920" width="40" height="20" as="geometry" />
        </mxCell>
        <mxCell id="qe6uHjUXgluFaMte2tlm-262" value="4" style="text;html=1;strokeColor=none;fillColor=none;align=center;verticalAlign=middle;whiteSpace=wrap;rounded=0;" vertex="1" parent="1">
          <mxGeometry x="1441" y="880" width="40" height="20" as="geometry" />
        </mxCell>
        <mxCell id="qe6uHjUXgluFaMte2tlm-263" value="2" style="text;html=1;strokeColor=none;fillColor=none;align=center;verticalAlign=middle;whiteSpace=wrap;rounded=0;" vertex="1" parent="1">
          <mxGeometry x="1441" y="840" width="40" height="20" as="geometry" />
        </mxCell>
        <mxCell id="qe6uHjUXgluFaMte2tlm-265" value="" style="endArrow=classic;html=1;exitX=1;exitY=0.75;exitDx=0;exitDy=0;entryX=0;entryY=0.5;entryDx=0;entryDy=0;" edge="1" parent="1" source="qe6uHjUXgluFaMte2tlm-96" target="qe6uHjUXgluFaMte2tlm-230">
          <mxGeometry width="50" height="50" relative="1" as="geometry">
            <mxPoint x="790" y="490" as="sourcePoint" />
            <mxPoint x="840" y="440" as="targetPoint" />
          </mxGeometry>
        </mxCell>
        <mxCell id="qe6uHjUXgluFaMte2tlm-266" value="" style="endArrow=classic;html=1;exitX=1;exitY=0.75;exitDx=0;exitDy=0;entryX=-0.008;entryY=0.119;entryDx=0;entryDy=0;entryPerimeter=0;" edge="1" parent="1" target="qe6uHjUXgluFaMte2tlm-230">
          <mxGeometry width="50" height="50" relative="1" as="geometry">
            <mxPoint x="663" y="90" as="sourcePoint" />
            <mxPoint x="903" y="460" as="targetPoint" />
          </mxGeometry>
        </mxCell>
        <mxCell id="qe6uHjUXgluFaMte2tlm-267" value="" style="endArrow=classic;html=1;entryX=0;entryY=0.75;entryDx=0;entryDy=0;" edge="1" parent="1" target="qe6uHjUXgluFaMte2tlm-230">
          <mxGeometry width="50" height="50" relative="1" as="geometry">
            <mxPoint x="690" y="649.04" as="sourcePoint" />
            <mxPoint x="917" y="550" as="targetPoint" />
          </mxGeometry>
        </mxCell>
        <mxCell id="qe6uHjUXgluFaMte2tlm-269" value="v" style="endArrow=classic;html=1;entryX=0.556;entryY=0.006;entryDx=0;entryDy=0;entryPerimeter=0;exitX=0.952;exitY=1.006;exitDx=0;exitDy=0;exitPerimeter=0;" edge="1" parent="1" source="qe6uHjUXgluFaMte2tlm-192" target="qe6uHjUXgluFaMte2tlm-247">
          <mxGeometry width="50" height="50" relative="1" as="geometry">
            <mxPoint x="1040" y="510" as="sourcePoint" />
            <mxPoint x="1577" y="580" as="targetPoint" />
          </mxGeometry>
        </mxCell>
      </root>
    </mxGraphModel>
  </diagram>
</mxfile>
